<?xml version="1.0" encoding="UTF-8" standalone="no"?>
<!-- Created with Inkscape (http://www.inkscape.org/) -->

<svg
   width="163.35751mm"
   height="117.49633mm"
   viewBox="0 0 163.35751 117.49633"
   version="1.1"
   id="svg5"
   xml:space="preserve"
   inkscape:version="1.2.2 (1:1.2.2+202305151914+b0a8486541)"
   sodipodi:docname="logo2_opt.svg"
   xmlns:inkscape="http://www.inkscape.org/namespaces/inkscape"
   xmlns:sodipodi="http://sodipodi.sourceforge.net/DTD/sodipodi-0.dtd"
   xmlns="http://www.w3.org/2000/svg"
   xmlns:svg="http://www.w3.org/2000/svg"><sodipodi:namedview
     id="namedview7"
     pagecolor="#ffffff"
     bordercolor="#666666"
     borderopacity="1.0"
     inkscape:showpageshadow="2"
     inkscape:pageopacity="0.0"
     inkscape:pagecheckerboard="0"
     inkscape:deskcolor="#d1d1d1"
     inkscape:document-units="mm"
     showgrid="false"
     inkscape:zoom="1.1893044"
     inkscape:cx="336.75146"
     inkscape:cy="215.67229"
     inkscape:window-width="1920"
     inkscape:window-height="1132"
     inkscape:window-x="1920"
     inkscape:window-y="0"
     inkscape:window-maximized="1"
     inkscape:current-layer="layer2" /><defs
     id="defs2"><inkscape:path-effect
       effect="fill_between_many"
       method="originald"
       linkedpaths="#path1268,0,1"
       id="path-effect1310"
       is_visible="true"
       lpeversion="0"
       join="true"
       close="true"
       autoreverse="true" /><inkscape:path-effect
       effect="fill_between_many"
       method="originald"
       linkedpaths="#path1342,0,1"
       id="path-effect1344"
       is_visible="true"
       lpeversion="0"
       join="true"
       close="true"
       autoreverse="true" /></defs><g
     inkscape:groupmode="layer"
     id="layer2"
     inkscape:label="Layer 2"
     transform="translate(-32.272743,-43.841631)"><path
       style="fill:#ff851b;fill-opacity:1;stroke:none;stroke-width:0.264583px;stroke-linecap:butt;stroke-linejoin:miter;stroke-opacity:1"
       d="m 32.272743,133.06275 c 5.329786,-1.43763 35.888748,-14.27895 44.208946,-9.99321 2.821183,1.45319 2.804952,3.87447 5.27258,4.22029 0.977944,0.13705 1.762538,-0.95682 2.449525,-1.66619 2.165448,-2.236 3.133642,-5.39581 5.001843,-7.88553 1.856978,-2.47476 3.606129,-5.18328 6.135794,-6.96473 1.273984,-0.89717 2.785525,-1.74059 4.343656,-1.72746 1.240413,0.0104 2.514983,0.60047 3.434293,1.43331 1.91795,1.73753 2.71334,4.4355 3.68129,6.83562 2.3221,5.75782 4.08374,18.24653 5.01604,17.93713 0.91514,0.39048 1.45444,-11.28441 2.26002,-16.91577 1.51255,-10.57337 2.24637,-21.31324 4.8315,-31.676692 0.68986,-2.765548 1.48676,-5.555403 2.83191,-8.068316 0.85549,-1.59816 1.77737,-3.31745 3.2712,-4.344307 1.18743,-0.816235 2.73444,-1.42889 4.15552,-1.190659 1.48876,0.249577 2.76279,1.422436 3.70864,2.598896 2.10914,2.623368 2.44713,5.604474 3.40386,8.831737 3.08142,10.394335 4.08402,21.878211 6.35465,32.479231 0.40144,2.39108 1.08076,4.58521 3.24371,3.64787 2.56101,-0.64277 4.2915,-1.20426 6.94066,-2.08462 2.48685,-0.82642 6.08722,-1.02977 8.87042,-1.3774 10.7009,-1.33659 18.03422,-0.5722 33.94145,1.73586 -3.36215,0.27684 -23.18717,1.28509 -31.36063,1.86692 -2.99334,0.21309 -5.25625,0.44225 -8.1226,1.3308 -2.11252,0.65487 -4.83364,1.27151 -6.56669,2.64561 -5.51256,1.99462 -7.51082,3.83802 -12.15132,2.91085 -2.13218,-3.4808 -2.73018,-7.02375 -3.49758,-9.7394 -1.30605,-4.62183 -1.72714,-9.40118 -2.54745,-14.13343 -0.70529,-4.068726 -0.74621,-8.245294 -1.61235,-12.282843 -0.31455,-1.4663 -0.0201,-1.084509 -1.29561,-4.308387 -1.30925,3.240831 -1.25114,3.699657 -1.57943,5.515773 -0.71448,3.952667 -0.85031,7.835067 -1.50289,11.798427 -1.09949,6.6776 -2.17195,13.36048 -3.12851,20.06005 -0.61897,4.33519 -0.74424,8.75243 -1.68912,13.02843 -0.53017,2.39925 -1.29997,4.75085 -2.2208,7.02891 -0.66097,1.63519 -1.03799,3.56801 -2.35965,4.73589 -0.92297,0.81558 -2.25695,1.13275 -3.48492,1.22828 -0.7571,0.0589 -1.5621,-0.0734 -2.23989,-0.41588 -1.09324,-0.55234 -1.96631,-1.51731 -2.68344,-2.51028 -0.81083,-1.12271 -1.24396,-2.47971 -1.74035,-3.77258 -0.84145,-2.19158 -1.53523,-4.44451 -2.08769,-6.72614 -0.93619,-3.86641 -1.06485,-7.9043 -2.0681,-11.75385 -0.72358,-2.77646 -2.140073,-7.03871 -2.83574,-8.12707 -1.084934,-0.24755 -1.661631,1.49523 -2.358245,2.36304 -1.237014,1.54102 -2.104558,3.34557 -3.191182,4.99609 -1.377634,2.09253 -2.452368,4.44372 -4.219176,6.21993 -0.952044,0.95712 -2.111108,1.73135 -3.339502,2.29128 -1.332961,0.60759 -2.790945,1.18365 -4.253706,1.10439 -1.123794,-0.0609 -2.223908,-0.56761 -3.157182,-1.19661 -1.678161,-1.13103 -2.897932,-2.84533 -4.125006,-4.4546 -4.205981,-1.95986 -33.617773,4.63298 -41.938748,4.47134 z"
       id="path1268"
       sodipodi:nodetypes="csssssssscsssssssccsscssccssscsssssssssssscsssssscc" /></g><g
     inkscape:groupmode="layer"
     id="layer3"
     inkscape:label="Layer 3"
     transform="translate(-32.272743,-43.841631)"><path
       style="fill:#ff851b;fill-opacity:1;stroke:none;stroke-width:0.264583px;stroke-linecap:butt;stroke-linejoin:miter;stroke-opacity:1"
       d="m 106.65537,161.33796 c -2.18291,-3.16231 -5.80415,-8.49045 -9.426764,-12.09765 -5.871949,-5.84697 -13.177373,-10.05255 -19.674229,-15.19626 -5.709655,-4.52046 -11.857612,-8.57465 -16.965093,-13.76583 -2.306837,-2.34464 -4.264417,-5.0278 -6.09209,-7.76247 -1.883971,-2.81891 -3.557135,-5.79045 -4.991229,-8.86274 -1.481447,-3.17374 -3.044253,-6.392606 -3.706868,-9.831827 -0.493154,-2.559657 -0.472163,-5.230964 -0.157311,-7.81861 0.332588,-2.733415 0.988587,-5.477789 2.141842,-7.978224 1.196782,-2.594808 2.868288,-5.011241 4.854659,-7.065418 1.684855,-1.742369 3.613594,-3.385498 5.851401,-4.316523 2.542265,-1.057692 5.412126,-1.166707 8.164107,-1.258475 2.719481,-0.09068 5.505488,-0.0051 8.132615,0.703395 2.983043,0.804508 5.795339,2.265834 8.383748,3.952817 2.368484,1.543648 4.194518,3.797245 6.406285,5.558112 1.210346,0.9636 2.212578,2.561228 3.749884,2.734876 1.056786,0.119371 2.151094,-0.593348 2.975149,-1.265642 0.561665,-0.458227 0.90941,-1.112816 1.198042,-1.777746 0.89396,-2.059444 0.757187,-4.438466 1.415516,-6.584876 0.782102,-2.549957 1.677656,-5.100558 2.993676,-7.420483 1.30455,-2.299703 3.12488,-4.513174 5.25053,-6.085458 2.24879,-1.663365 4.68,-2.557161 7.4189,-3.124851 3.03076,-0.628185 6.21374,-1.019032 9.27031,-0.531646 2.33652,0.37257 4.58709,1.360744 6.60864,2.590159 3.075,1.870076 5.95397,4.241028 8.12255,7.113318 1.83072,2.424798 2.78422,5.412568 3.89759,8.239509 1.29974,3.300145 2.1696,6.753867 3.2311,10.138169 0.40943,1.305352 0.89752,2.442493 1.21028,3.921656 0.11059,-1.303635 0.71348,-4.873859 0.68416,-7.326463 -0.0296,-2.472381 -0.30045,-4.959944 -0.86605,-7.366942 -0.61907,-2.634538 -1.52492,-5.22473 -2.74247,-7.641674 -1.50257,-2.982748 -3.27739,-5.898256 -5.56385,-8.332714 -2.24528,-2.390609 -4.93136,-4.420447 -7.82434,-5.96543 -2.1214,-1.132925 -4.47242,-1.843137 -6.82648,-2.335353 -2.72531,-0.569843 -5.54477,-0.852167 -8.32425,-0.689361 -2.55582,0.149705 -5.12379,0.64331 -7.52804,1.523185 -2.06511,0.755762 -3.93368,1.984896 -5.78319,3.174518 -2.201235,1.415859 -4.067595,3.038947 -5.778095,5.019928 -1.424004,1.649179 -2.72023,3.443908 -3.618795,5.428891 -0.602695,1.331389 -1.059934,3.082395 -1.525125,4.11054 -1.906576,-1.575849 -4.542894,-3.869924 -7.133918,-5.310253 -2.659768,-1.478543 -5.540741,-2.614285 -8.495469,-3.34232 -3.228407,-0.795469 -6.591848,-1.130755 -9.916403,-1.078611 -2.717845,0.04263 -5.448412,0.43622 -8.075083,1.135576 -1.911669,0.508985 -3.777021,1.250932 -5.509858,2.205302 -2.061829,1.135564 -4.018929,2.513305 -5.722012,4.13816 -2.11401,2.016907 -4.026249,4.310251 -5.464693,6.853444 -2.136902,3.778078 -3.6149,7.963295 -4.542769,12.203493 -0.725132,3.313728 -0.887556,6.758544 -0.757473,10.148189 0.09601,2.501798 0.579912,4.983076 1.131467,7.425206 0.37355,1.653972 0.891462,3.275947 1.469361,4.870057 0.854176,2.35621 1.74436,4.71814 2.945553,6.9178 1.070826,1.96093 2.444708,3.74322 3.768704,5.54292 2.070823,2.81486 4.059568,5.7283 6.521847,8.20801 3.070896,3.09263 6.686647,5.59883 10.179211,8.2059 4.06622,3.03528 8.304513,5.83485 12.529248,8.64531 5.121069,3.40673 10.396866,6.5762 15.534489,9.95792 5.702863,3.75377 14.247633,10.45219 16.971083,11.46749 z"
       id="path1342"
       sodipodi:nodetypes="csssssssssssssssssssssssssscssssssssssscsssssssssssssssssc" /></g></svg>
