<?xml version="1.0" standalone="no"?>
<!DOCTYPE svg PUBLIC "-//W3C//DTD SVG 20010904//EN"
 "http://www.w3.org/TR/2001/REC-SVG-20010904/DTD/svg10.dtd">
<svg version="1.0" xmlns="http://www.w3.org/2000/svg"
 width="658.000000pt" height="658.000000pt" viewBox="0 0 658.000000 658.000000"
 preserveAspectRatio="xMidYMid meet">
<metadata>
Created by potrace 1.14, written by Peter Selinger 2001-2017
</metadata>
<g transform="translate(0.000000,658.000000) scale(0.100000,-0.100000)"
fill="#000000" stroke="none">
<path d="M1607 6568 c-13 -11 -56 -108 -63 -143 -1 -5 -7 -29 -13 -53 -7 -24
-14 -55 -16 -70 -2 -15 -7 -49 -11 -77 -9 -60 -10 -188 -2 -230 3 -16 13 -55
22 -86 12 -41 18 -108 20 -245 2 -104 6 -209 9 -234 14 -110 19 -146 28 -194
6 -28 12 -60 14 -71 22 -142 88 -307 191 -478 36 -58 176 -268 196 -291 32
-39 128 -178 128 -186 0 -6 7 -13 15 -16 8 -4 15 -11 15 -16 0 -6 16 -32 36
-59 l35 -49 -2 -97 -3 -98 -53 -52 c-28 -29 -66 -76 -82 -105 -30 -51 -31 -52
-78 -53 -60 -1 -110 -13 -143 -34 -42 -27 -90 -73 -90 -88 0 -18 -7 -17 -49
10 -29 17 -51 22 -108 22 -119 0 -189 -53 -208 -157 -4 -21 -10 -37 -14 -36
-28 8 -111 -26 -111 -45 0 -2 214 -4 475 -4 261 0 477 -2 479 -4 2 -2 6 -25 8
-51 l5 -48 -36 0 c-20 0 -50 4 -68 9 -24 7 -35 6 -44 -5 -10 -12 -8 -17 5 -27
15 -11 3 -13 -71 -13 -84 -1 -133 -13 -133 -34 0 -11 53 -70 63 -70 3 0 32
-15 64 -33 56 -32 109 -52 126 -49 4 1 7 -2 7 -7 0 -5 12 -11 28 -14 43 -9
127 -30 131 -34 3 -2 6 -40 7 -86 2 -45 6 -118 9 -162 3 -44 8 -107 10 -140 3
-33 7 -82 9 -110 5 -51 16 -193 20 -255 4 -58 18 -175 21 -180 2 -3 0 -11 -4
-18 -12 -19 -43 21 -46 60 -3 36 -19 41 -21 7 -2 -34 -23 -64 -63 -89 -42 -26
-71 -66 -71 -100 0 -23 17 -61 33 -71 13 -9 16 -49 5 -71 -6 -13 -16 -16 -36
-12 -47 9 -67 12 -79 13 -16 1 -18 111 -3 111 6 0 19 15 30 32 45 75 9 167
-85 215 -54 29 -99 102 -81 132 4 5 2 12 -4 16 -5 3 -10 13 -10 21 0 10 5 12
13 8 9 -6 9 -5 0 8 -7 8 -10 18 -6 21 3 4 1 7 -5 7 -7 0 -12 -6 -13 -12 0 -7
-2 -36 -3 -64 -3 -66 -21 -93 -96 -144 -103 -70 -125 -156 -57 -228 15 -16 22
-37 23 -72 l2 -48 -51 -7 c-29 -4 -59 -9 -68 -10 -25 -5 -24 64 2 91 45 48 27
114 -47 164 -45 31 -70 71 -60 96 3 8 -3 18 -12 23 -15 10 -16 10 0 11 11 0
15 6 11 20 -3 11 -10 20 -15 20 -5 0 -6 -5 -3 -10 4 -6 2 -17 -5 -25 -7 -8 -7
-15 -1 -19 5 -3 8 -14 6 -24 -2 -9 -4 -24 -4 -33 -1 -9 -23 -32 -51 -50 -76
-52 -98 -113 -60 -162 24 -30 34 -126 14 -134 -21 -8 -47 -11 -87 -12 l-38 -1
15 -29 c9 -16 13 -31 10 -34 -3 -2 -4 -33 -4 -68 2 -76 1 -125 -3 -159 -2 -14
0 -37 4 -52 4 -15 4 -30 -1 -33 -4 -3 -5 -20 -1 -37 4 -18 5 -44 4 -58 -2 -14
-3 -49 -3 -78 l1 -53 -48 3 -48 3 0 55 c-1 30 5 67 12 83 11 23 11 27 -1 27
-27 0 -29 9 -41 325 -2 60 0 126 4 147 5 21 6 40 1 43 -4 2 6 30 21 62 15 32
26 59 24 62 -3 2 -17 4 -32 5 -26 1 -28 3 -25 40 2 22 5 48 7 58 3 15 -3 18
-36 18 -21 0 -39 4 -39 10 0 5 -3 9 -7 9 -20 -3 -33 2 -33 14 0 8 -11 24 -25
37 -25 23 -25 26 -25 184 l0 160 27 29 c16 17 23 27 17 24 -7 -4 -16 -1 -22 6
-13 16 3 57 23 57 18 0 20 17 3 33 -31 30 -97 77 -107 77 -6 0 -11 4 -11 9 0
5 -7 16 -15 24 -10 11 -15 43 -16 121 -1 94 1 109 17 122 14 11 15 17 7 20
-16 7 -17 46 -1 62 9 9 4 19 -22 42 -26 23 -106 70 -148 86 -1 0 -4 54 -8 120
-3 65 -7 160 -9 209 -3 50 -7 131 -9 181 -9 188 -18 370 -20 399 -2 17 1 38 6
47 5 10 4 19 -2 23 -13 8 -13 65 0 65 6 0 10 5 10 11 0 5 -4 7 -10 4 -6 -3
-10 2 -10 11 0 10 -3 14 -7 11 -3 -4 -8 -71 -9 -149 -3 -136 -8 -254 -19 -453
-6 -108 -15 -291 -19 -398 -2 -43 -5 -79 -7 -80 -2 -1 -22 -11 -44 -22 -46
-23 -91 -52 -117 -78 -15 -14 -17 -21 -8 -33 8 -8 10 -27 6 -49 -5 -25 -3 -37
6 -40 11 -4 14 -30 12 -104 -1 -105 -17 -150 -58 -169 -40 -18 -105 -83 -99
-98 3 -8 12 -13 19 -10 9 3 15 -2 16 -14 0 -11 1 -26 2 -32 1 -7 -5 -12 -11
-11 -20 4 -15 -14 9 -31 20 -15 21 -22 21 -181 l0 -165 -27 -21 c-14 -11 -26
-29 -26 -39 0 -13 -6 -18 -20 -15 -11 2 -20 0 -20 -6 0 -5 -18 -9 -40 -9 -39
0 -40 -1 -33 -27 14 -59 10 -86 -16 -90 -14 -2 -27 -5 -29 -8 -3 -2 7 -31 20
-63 25 -57 26 -62 23 -269 -3 -245 -9 -293 -36 -300 -17 -5 -17 -7 -3 -28 10
-16 14 -43 13 -84 l-2 -61 -68 0 c-55 0 -75 -4 -104 -24 l-35 -24 33 -40 33
-39 -3 -263 c-2 -181 -7 -267 -15 -277 -10 -12 -13 -151 -3 -161 5 -6 506 -5
511 1 4 3 6 115 7 249 0 277 5 302 65 335 44 25 126 25 162 0 56 -39 58 -48
59 -325 1 -141 4 -258 6 -260 2 -2 224 -4 493 -4 l489 0 34 -29 c78 -69 176
-97 259 -75 42 11 60 19 60 27 0 5 6 9 14 9 8 0 27 10 43 23 48 38 136 81 165
79 33 -3 270 118 508 258 96 57 185 108 197 114 13 6 23 14 23 19 0 4 9 7 20
7 11 0 20 5 20 10 0 6 4 10 10 10 9 0 166 86 308 169 289 168 547 301 597 307
11 1 25 4 30 5 20 6 83 -12 136 -37 30 -15 126 -55 214 -90 149 -58 276 -112
283 -119 2 -2 -15 -27 -37 -56 -23 -30 -55 -83 -73 -119 -42 -86 -97 -252 -89
-265 9 -12 8 -14 -8 -87 -7 -31 -12 -65 -12 -75 -2 -117 77 -245 184 -300 43
-23 65 -27 132 -27 124 -1 190 45 171 119 -6 24 -21 41 -129 142 -30 29 -58
61 -62 73 -3 11 -11 20 -16 20 -5 0 -8 3 -8 8 1 4 0 9 -1 12 -11 29 1 48 81
130 49 50 89 93 89 94 0 2 17 21 38 43 20 21 60 65 87 97 28 33 55 64 60 70
32 34 117 169 125 196 29 102 -183 330 -461 498 -62 37 -77 52 -76 69 1 13 7
25 14 27 10 4 11 23 7 73 -3 37 -8 72 -11 76 -2 4 -7 22 -9 40 -16 110 -51
260 -81 347 -8 25 -17 56 -19 69 -3 14 -7 28 -9 32 -7 10 -18 135 -18 194 0
80 11 136 38 205 14 36 27 74 29 85 6 30 17 55 25 55 9 0 167 19 209 25 18 3
54 8 80 11 26 3 58 7 72 9 14 2 50 6 80 10 30 4 66 8 80 10 25 4 69 10 153 21
23 3 49 7 57 9 8 2 38 7 65 10 100 13 115 15 239 35 69 11 144 20 166 20 22 0
40 4 40 8 0 5 19 9 43 10 65 3 113 11 152 28 19 8 35 12 35 10 0 -5 72 26 155
65 57 27 119 72 122 89 7 36 -14 45 -119 50 -63 3 -94 8 -79 12 21 6 23 9 11
23 -10 12 -23 15 -44 10 -17 -3 -62 -7 -101 -8 -38 -1 -76 -6 -82 -10 -7 -5
-13 -5 -13 -2 0 4 -21 -14 -47 -39 -27 -25 -49 -42 -51 -38 -3 10 -256 3 -497
-13 -74 -5 -236 -5 -270 0 -16 2 -61 7 -100 10 -38 4 -80 8 -93 10 -13 2 -53
7 -90 10 -37 4 -78 8 -92 11 -14 2 -54 6 -90 10 -36 3 -76 7 -90 9 -14 3 -56
7 -95 10 -38 4 -77 9 -85 12 -18 7 -14 6 -70 23 -25 7 -51 13 -58 13 -27 1 5
15 45 21 181 24 272 93 326 249 14 38 28 62 37 63 85 3 170 82 170 159 0 38
-21 115 -31 115 -5 0 -9 6 -9 14 0 7 -15 21 -34 30 -31 14 -34 19 -29 49 3 17
6 49 7 69 0 21 3 38 6 38 13 0 9 259 -5 320 -8 36 -17 76 -20 90 -19 81 -135
258 -191 290 -11 6 -29 26 -39 43 -31 52 -110 123 -168 151 -73 34 -124 44
-205 41 -113 -5 -208 -49 -291 -136 -30 -31 -151 -107 -151 -95 0 2 18 44 41
93 57 122 66 147 84 223 0 3 5 23 10 45 4 22 9 45 10 50 7 30 38 234 41 274 3
25 7 129 9 231 4 143 10 202 26 260 25 93 26 232 3 338 -3 15 -6 34 -6 42 0
24 -38 150 -60 202 -22 51 -53 67 -87 46 -20 -12 -55 -114 -67 -195 -4 -24
-10 -43 -15 -43 -5 0 -8 3 -8 8 4 24 -3 42 -16 42 -22 0 -46 -44 -41 -74 4
-23 -6 -80 -21 -116 -11 -26 -11 -94 1 -121 6 -14 31 -58 56 -99 39 -65 45
-81 43 -125 -3 -76 -12 -134 -29 -195 -9 -30 -17 -59 -19 -65 -1 -5 -6 -21
-12 -35 -5 -14 -20 -54 -33 -90 -13 -36 -32 -80 -42 -97 -10 -18 -15 -33 -13
-33 3 0 -5 -19 -17 -42 -12 -24 -23 -45 -23 -48 -4 -14 -55 -120 -58 -120 -2
0 -4 23 -5 51 0 29 -10 69 -22 94 -21 43 -72 85 -102 85 -13 0 -11 11 9 67 13
37 27 85 31 108 8 47 8 270 -1 301 -10 39 -45 99 -69 120 -27 23 -83 46 -92
37 -3 -4 -6 12 -6 33 0 33 -7 46 -38 77 -21 20 -43 37 -50 37 -7 0 -12 4 -12
9 0 10 -121 66 -180 82 -138 37 -327 46 -395 19 -16 -6 -32 -11 -35 -11 -56 3
-217 -78 -280 -142 -49 -48 -98 -129 -117 -192 -13 -43 -25 -60 -49 -75 -71
-41 -97 -124 -78 -239 7 -42 15 -87 19 -101 13 -59 15 -80 6 -80 -5 0 -7 -16
-5 -35 2 -23 -1 -35 -10 -35 -7 0 -24 -12 -38 -27 -33 -37 -49 -75 -51 -125
-2 -39 -15 -25 -54 61 -19 42 -43 94 -53 116 -77 169 -133 367 -134 475 -1 74
0 76 53 162 58 96 66 129 44 198 -7 25 -16 72 -18 105 -5 67 -24 96 -49 76 -9
-8 -14 -16 -12 -20 3 -4 1 -13 -3 -20 -5 -8 -11 5 -16 35 -9 67 -44 175 -63
197 -18 20 -42 22 -65 5z m1887 -1545 c-36 -60 -90 -144 -104 -160 -5 -7 -10
-15 -10 -18 0 -7 2 -4 -77 -100 -80 -97 -183 -182 -205 -169 -5 3 -19 7 -31 9
-12 1 -47 6 -77 10 -30 4 -66 9 -80 10 -14 2 -29 3 -34 4 -16 2 83 50 101 49
47 -2 186 72 238 126 45 48 88 118 113 186 6 17 17 24 43 25 43 3 115 39 131
65 26 41 18 9 -8 -37z m-1401 -23 c16 -8 39 -13 51 -12 20 1 28 -9 52 -65 26
-62 96 -161 133 -190 40 -31 142 -74 196 -83 74 -13 108 -27 103 -42 -2 -6
-17 -13 -34 -14 -16 -1 -42 -5 -59 -9 -85 -18 -104 -17 -150 10 -61 35 -152
131 -230 240 -76 106 -139 219 -109 195 10 -9 32 -22 47 -30z m1446 -707 c1
-49 3 -99 5 -113 3 -14 7 -59 10 -100 3 -41 8 -85 10 -98 4 -16 -7 -34 -39
-67 -37 -39 -45 -53 -51 -101 -5 -43 -2 -64 12 -96 23 -52 88 -100 138 -103 6
0 20 -29 33 -65 40 -110 105 -190 192 -232 52 -25 47 -24 121 -39 30 -7 59
-15 63 -19 8 -7 -35 -26 -82 -35 -11 -2 -25 -6 -29 -9 -11 -7 -51 -13 -132
-22 -36 -3 -76 -8 -90 -9 -14 -2 -52 -6 -85 -10 -33 -3 -76 -8 -95 -10 -19 -2
-57 -7 -85 -10 l-50 -6 -2 193 c-2 292 -13 556 -28 658 -3 25 -8 58 -10 74 -3
20 7 44 33 85 20 31 43 62 50 69 6 7 12 17 12 21 0 4 8 16 18 27 9 10 30 38
46 62 16 23 30 42 32 42 2 0 3 -39 3 -87z m21 -1508 c80 -10 83 -11 86 -26 4
-23 13 -69 38 -187 25 -121 33 -282 14 -282 -6 0 -8 3 -5 7 4 3 3 11 -2 17 -5
6 -35 61 -66 121 -32 61 -66 122 -76 136 -10 14 -16 28 -13 31 2 3 -2 11 -11
18 -8 7 -15 16 -15 20 0 5 -20 42 -45 84 l-44 75 47 -4 c26 -2 67 -6 92 -10z
m-655 -142 c14 -16 80 -100 147 -188 67 -88 126 -161 130 -163 4 -2 8 -10 8
-17 0 -7 3 -15 8 -17 4 -1 24 -26 44 -53 l36 -50 -24 -30 c-13 -17 -24 -33
-24 -36 0 -3 -32 -55 -71 -115 -39 -60 -84 -129 -100 -154 -16 -25 -33 -50
-39 -57 -5 -7 -10 -15 -10 -18 0 -3 -13 -24 -30 -46 -26 -36 -28 -43 -15 -56
8 -8 15 -17 14 -21 0 -4 -29 -32 -64 -62 -35 -30 -64 -61 -64 -67 -1 -7 -5
-13 -11 -13 -5 0 -9 -3 -8 -7 4 -14 -24 -103 -33 -103 -4 0 -6 15 -4 33 3 17
7 86 10 152 10 243 15 360 30 655 10 188 28 431 34 455 2 10 13 4 36 -22z
m691 -754 c-9 -29 -14 -54 -12 -57 3 -2 0 -16 -5 -30 -14 -37 -14 -153 0 -179
13 -25 15 -63 3 -63 -11 0 -143 -101 -217 -165 -86 -75 -103 -91 -187 -171
l-77 -74 -7 58 c-20 142 5 272 50 264 11 -2 36 16 70 51 176 185 229 242 296
316 41 45 79 89 83 98 17 29 18 4 3 -48z m-773 -736 c20 -38 68 -76 119 -94
l36 -12 -26 -21 c-28 -21 -38 -30 -69 -56 -61 -53 -137 -110 -140 -106 -8 8 8
26 23 26 9 0 14 11 15 33 1 30 4 126 9 257 1 42 3 49 9 30 5 -14 15 -39 24
-57z m-276 -308 c-4 -36 -12 -38 -13 -4 -1 16 2 29 8 29 5 0 7 -11 5 -25z"/>
<path d="M1935 2400 c-8 -13 9 -20 24 -11 10 6 9 10 -3 14 -8 3 -18 2 -21 -3z"/>
<path d="M1941 2354 c-1 -18 4 -21 29 -19 41 3 51 15 13 15 -17 0 -34 6 -36
13 -3 6 -6 2 -6 -9z"/>
<path d="M1900 2345 c0 -9 6 -12 15 -9 8 4 15 7 15 9 0 2 -7 5 -15 9 -9 3 -15
0 -15 -9z"/>
<path d="M1557 2243 c-3 -5 1 -14 9 -20 8 -8 15 -9 19 -3 3 6 1 10 -5 10 -6 0
-8 5 -5 10 3 6 2 10 -4 10 -5 0 -12 -3 -14 -7z"/>
<path d="M2311 2241 c-10 -6 -9 -10 5 -15 20 -8 25 -4 16 11 -4 7 -13 9 -21 4z"/>
<path d="M2314 2201 c4 -5 0 -12 -6 -14 -10 -4 -10 -6 -1 -6 7 -1 10 -8 7 -16
-4 -8 -1 -15 5 -15 6 0 11 14 11 30 0 17 -5 30 -11 30 -5 0 -8 -4 -5 -9z"/>
<path d="M1523 2187 c-3 -4 -2 -11 1 -14 3 -4 6 -1 6 6 0 8 6 9 18 3 19 -10
68 -9 79 1 3 4 -5 7 -18 8 -13 0 -37 2 -52 3 -16 1 -31 -2 -34 -7z"/>
<path d="M2280 2191 c0 -7 -5 -9 -12 -5 -7 5 -8 3 -3 -5 5 -9 10 -10 18 -2 6
6 8 14 4 18 -4 3 -7 1 -7 -6z"/>
<path d="M2312 2125 c-11 -13 -10 -15 7 -15 14 0 19 5 15 15 -7 18 -6 18 -22
0z"/>
</g>
</svg>
