<?xml version="1.0" standalone="no"?>
<!DOCTYPE svg PUBLIC "-//W3C//DTD SVG 20010904//EN"
 "http://www.w3.org/TR/2001/REC-SVG-20010904/DTD/svg10.dtd">
<svg version="1.0" xmlns="http://www.w3.org/2000/svg"
 width="1088.000000pt" height="1088.000000pt" viewBox="0 0 1088.000000 1088.000000"
 preserveAspectRatio="xMidYMid meet">
<metadata>
Created by potrace 1.14, written by Peter Selinger 2001-2017
</metadata>
<g transform="translate(0.000000,1088.000000) scale(0.100000,-0.100000)"
fill="#000000" stroke="none">
<path d="M7199 10876 c-2 -2 -21 -7 -41 -10 -85 -13 -220 -71 -302 -130 -35
-25 -125 -114 -146 -146 -8 -12 -51 -40 -95 -62 -71 -36 -161 -91 -175 -107
-3 -4 -21 -18 -40 -32 -76 -57 -188 -185 -229 -259 -82 -153 -113 -240 -127
-362 -3 -23 -5 -47 -5 -53 2 -69 12 -275 16 -325 11 -131 24 -251 29 -259 2
-3 7 -29 10 -58 5 -47 3 -53 -21 -68 -43 -29 -83 -68 -83 -82 0 -7 -4 -13 -9
-13 -25 0 -72 -212 -50 -226 5 -3 7 -9 4 -14 -15 -25 92 -180 124 -180 6 0 11
-4 11 -9 0 -11 102 -51 130 -51 11 0 24 -9 30 -20 6 -11 9 -20 6 -20 -10 0 48
-141 87 -209 111 -195 306 -321 536 -347 24 -3 62 -13 84 -23 l40 -18 -49 -16
c-27 -9 -69 -21 -94 -28 -54 -15 -51 -14 -70 -22 -8 -3 -58 -17 -110 -31 -159
-43 -284 -97 -405 -175 -71 -47 -235 -199 -235 -220 0 -15 -20 -14 -21 2 0 6
-2 23 -5 37 -2 14 -6 36 -8 50 -9 54 -40 126 -64 149 -41 38 -118 69 -227 91
-22 4 -119 24 -215 44 -96 20 -190 39 -209 42 -19 3 -44 10 -57 14 -12 5 -24
7 -27 4 -2 -2 -16 0 -30 5 -14 6 -43 12 -64 15 -21 3 -69 12 -108 21 -38 9
-79 18 -90 20 -62 9 -104 17 -140 27 -22 6 -49 12 -60 13 -28 5 -75 14 -105
21 -14 3 -33 8 -43 10 -10 1 -62 25 -115 51 -53 26 -104 48 -112 50 -8 1 -35
4 -60 6 -80 9 -86 16 -43 45 101 68 217 207 272 327 21 44 51 121 50 128 0 1
2 9 5 17 3 8 11 39 18 69 13 52 14 54 49 56 89 6 209 98 251 192 53 118 19
273 -81 374 -26 26 -103 70 -118 68 -5 -1 -22 -1 -40 0 -28 1 -31 4 -27 24 28
127 35 171 39 222 17 260 -13 463 -95 630 -69 142 -172 217 -286 209 l-42 -4
5 34 c5 41 -18 89 -61 129 -62 57 -287 148 -398 161 -21 2 -41 7 -46 9 -28 18
-339 29 -432 15 -99 -15 -160 -27 -170 -33 -4 -2 -20 -7 -37 -9 -39 -7 -191
-68 -268 -108 -192 -99 -354 -259 -431 -426 -25 -54 -57 -145 -59 -167 -1 -5
-4 -19 -8 -30 -3 -11 -9 -44 -12 -74 -5 -43 -13 -59 -33 -75 -135 -104 -169
-265 -98 -462 106 -297 105 -295 94 -313 -8 -13 -8 -30 0 -61 l11 -44 -43 -37
c-66 -58 -90 -123 -91 -239 0 -77 4 -103 22 -140 39 -81 140 -156 240 -178 37
-8 112 -6 122 3 2 3 20 -23 39 -58 19 -34 37 -64 41 -67 3 -3 12 -17 20 -32
25 -49 155 -175 227 -222 67 -43 155 -83 199 -92 11 -2 49 -10 85 -17 36 -7
101 -13 145 -12 44 1 85 -1 90 -5 22 -14 94 -31 153 -35 35 -2 66 -6 69 -8 2
-3 5 -33 6 -66 1 -34 6 -61 11 -61 5 0 4 -6 -2 -13 -6 -7 -7 -18 -3 -26 8 -13
3 -51 -8 -61 -7 -6 -56 -151 -66 -195 -9 -38 -13 -87 -20 -260 -8 -216 -8
-217 -116 -410 -19 -33 -47 -86 -63 -118 -35 -68 -63 -98 -75 -78 -5 7 -11 11
-14 9 -3 -1 -23 7 -44 20 -275 168 -350 214 -363 222 -8 5 -49 28 -90 49 -41
22 -93 58 -115 80 -21 23 -44 41 -51 41 -6 0 -17 6 -23 14 -25 30 -15 70 38
151 94 142 104 182 66 256 -27 51 -45 54 -199 36 -13 -1 -30 17 -60 65 -22 37
-54 83 -71 101 -31 36 -155 112 -191 118 -35 6 -70 -26 -84 -76 -10 -36 -22
-52 -51 -71 -42 -26 -59 -51 -66 -98 -4 -30 -22 -50 -77 -89 -21 -15 -26 -26
-26 -61 0 -36 -6 -49 -36 -80 -30 -31 -35 -42 -32 -74 6 -57 24 -82 107 -149
42 -35 90 -74 106 -88 17 -14 47 -40 69 -58 21 -18 43 -37 50 -42 6 -6 38 -33
71 -60 33 -28 71 -60 85 -73 14 -13 48 -41 77 -63 29 -23 76 -64 105 -92 70
-68 315 -269 443 -362 22 -17 42 -32 45 -35 18 -18 132 -100 139 -100 5 0 11
-3 13 -7 14 -33 328 -231 328 -207 0 3 9 0 20 -6 12 -6 20 -7 20 -1 0 5 9 7
20 4 34 -9 108 36 168 103 l58 65 33 -88 c18 -48 46 -124 63 -168 35 -91 189
-408 200 -413 5 -2 8 -8 8 -14 0 -16 86 -141 126 -183 22 -22 51 -46 65 -54
15 -7 33 -25 40 -40 16 -29 29 -45 44 -52 12 -5 11 -10 -22 -114 -14 -44 -26
-84 -28 -90 -1 -5 -4 -17 -7 -25 -4 -8 -16 -49 -28 -90 -12 -41 -26 -86 -30
-100 -5 -14 -25 -77 -44 -140 -19 -63 -51 -168 -71 -234 -21 -65 -38 -123 -40
-130 -1 -6 -5 -18 -8 -26 -3 -8 -15 -49 -27 -90 -12 -41 -24 -82 -27 -90 -3
-8 -7 -20 -8 -26 -2 -10 -53 -174 -83 -269 -3 -11 -7 -22 -7 -25 -12 -46 -19
-67 -24 -75 -3 -5 -6 -16 -7 -22 -1 -7 -12 -43 -24 -80 -12 -38 -23 -75 -25
-83 -2 -8 -10 -35 -18 -60 -8 -25 -29 -92 -47 -150 -17 -58 -34 -112 -37 -120
-3 -8 -7 -20 -9 -27 -1 -7 -9 -34 -18 -60 -22 -71 -29 -116 -40 -288 -3 -44
-7 -102 -10 -130 -5 -50 -14 -181 -21 -330 -2 -44 -6 -114 -9 -155 -3 -41 -8
-129 -11 -195 -3 -66 -10 -121 -15 -123 -6 -2 -10 -12 -10 -22 0 -10 -5 -22
-10 -25 -6 -4 -7 -13 -1 -23 4 -9 9 -43 10 -74 2 -55 2 -56 -24 -53 l-27 2 7
-61 c4 -33 8 -70 9 -80 2 -11 13 -23 25 -28 12 -4 19 -12 16 -18 -3 -5 -3 -10
2 -10 4 0 9 -25 11 -55 3 -45 0 -56 -15 -62 -17 -6 -54 -36 -95 -76 -10 -10
-16 -22 -13 -27 4 -6 -2 -13 -12 -16 -10 -3 -29 -11 -43 -16 -14 -6 -31 -12
-37 -14 -7 -1 -49 -16 -94 -33 -44 -17 -85 -31 -90 -31 -5 0 -26 -7 -47 -16
-20 -10 -46 -19 -57 -21 -24 -4 -94 -38 -115 -56 -27 -21 -57 -71 -66 -107 -7
-33 -8 -47 -5 -85 1 -17 74 -57 111 -61 14 -1 28 -2 32 -3 4 -1 -3 -11 -15
-24 -13 -14 -34 -23 -52 -23 -56 0 -95 -15 -135 -53 -22 -20 -40 -43 -40 -49
0 -7 -4 -12 -8 -12 -5 0 -9 -6 -10 -12 -1 -7 -4 -34 -8 -61 -11 -81 32 -162
108 -202 48 -26 128 -29 179 -7 51 22 105 80 114 124 4 15 11 25 16 22 6 -3 8
-8 5 -11 -9 -9 25 -66 59 -98 53 -52 150 -68 225 -37 51 20 108 89 112 134 3
34 14 27 23 -13 8 -37 57 -94 99 -116 46 -24 142 -25 186 -3 47 24 96 80 105
119 7 32 24 42 26 16 10 -122 174 -190 301 -126 27 14 46 27 43 29 -2 3 4 12
14 21 24 21 49 106 44 151 -5 46 -38 108 -71 137 -28 24 -118 56 -133 47 -9
-5 -79 37 -79 49 0 4 7 7 15 7 8 0 15 3 15 8 0 4 14 16 30 27 16 11 30 26 30
33 0 6 5 12 10 12 6 0 21 24 34 53 21 44 24 65 21 132 -1 44 -5 94 -9 110 -4
17 -9 44 -12 60 -4 17 -9 34 -12 40 -3 5 -7 21 -8 35 0 14 -4 48 -8 75 -4 28
-9 73 -11 100 -13 128 -26 174 -70 239 -30 45 -34 147 -11 266 9 47 19 99 21
115 3 17 8 41 11 55 4 14 8 32 9 40 1 14 9 56 20 110 8 38 14 71 21 115 3 22
8 43 9 46 2 3 7 28 11 55 3 27 8 52 10 55 2 3 6 21 9 40 3 19 13 72 21 119 9
47 18 98 21 115 3 16 33 72 68 125 34 52 63 98 64 103 0 4 12 20 26 35 14 15
25 31 25 35 0 5 26 48 59 95 32 48 95 143 139 212 45 69 86 132 92 140 43 63
100 154 100 159 0 3 10 18 23 33 13 14 32 43 42 62 11 20 23 36 27 36 5 0 8 6
8 14 0 7 6 19 14 25 16 14 9 34 101 -284 26 -88 48 -167 49 -175 2 -13 13 -52
32 -110 3 -8 6 -17 6 -20 0 -3 5 -16 10 -30 5 -14 12 -34 14 -44 4 -23 62
-202 74 -231 4 -11 13 -34 20 -51 11 -31 85 -114 101 -114 4 0 14 -7 22 -15 8
-8 75 -53 148 -101 176 -114 184 -118 186 -113 1 2 12 -6 25 -17 13 -12 28
-23 33 -25 6 -2 48 -26 93 -54 96 -57 146 -87 182 -107 14 -8 65 -38 114 -66
49 -29 93 -52 97 -52 5 0 9 -4 9 -10 0 -5 5 -10 11 -10 7 0 42 -19 80 -42 l68
-42 -15 -28 c-13 -25 -11 -32 7 -30 4 1 15 -8 24 -18 10 -11 22 -20 28 -20 5
0 22 -9 38 -21 24 -17 33 -19 45 -9 16 14 27 8 31 -18 6 -38 15 -109 18 -142
2 -19 6 -52 9 -73 20 -148 19 -170 -12 -252 -97 -256 -100 -287 -32 -381 33
-46 95 -63 124 -34 11 11 46 13 70 4 13 -5 12 -11 -8 -37 -31 -41 -49 -111
-42 -158 6 -35 3 -40 -36 -73 -23 -20 -48 -36 -55 -36 -7 0 -13 -5 -13 -10 0
-6 -16 -18 -35 -27 -19 -9 -35 -20 -35 -25 0 -4 -6 -8 -14 -8 -8 0 -21 -6 -28
-12 -16 -16 -107 -78 -113 -78 -8 0 -130 -84 -133 -92 -2 -4 -9 -8 -16 -8 -16
0 -86 -67 -87 -83 0 -7 -2 -23 -5 -35 -6 -32 24 -79 55 -88 59 -16 424 -25
453 -12 10 5 19 4 23 -2 4 -6 11 -8 16 -4 6 3 42 8 82 10 274 15 441 41 488
76 45 34 72 109 66 187 -6 83 -9 94 -53 216 -19 55 -38 111 -40 125 -3 14 -12
39 -20 55 -26 51 -26 64 4 71 144 30 218 188 146 312 -15 26 -21 42 -13 35 49
-40 200 -28 230 19 4 6 32 -6 65 -27 33 -21 61 -38 64 -38 3 0 16 -4 30 -9 42
-17 152 -20 179 -6 62 33 82 116 60 243 -6 33 -12 71 -14 85 -2 14 -4 25 -5
25 -7 0 -23 166 -21 225 2 50 28 148 44 168 6 7 16 11 23 8 7 -3 22 6 33 19
10 14 21 25 24 25 4 0 17 10 29 23 24 23 167 152 204 184 218 188 580 531 705
669 54 60 107 141 119 182 27 98 -7 235 -92 374 -101 163 -194 307 -434 668
-257 388 -277 424 -278 524 -1 42 3 76 7 76 4 0 4 8 -2 17 -13 23 3 59 39 89
44 37 72 81 75 117 2 18 11 52 20 77 11 30 15 60 11 90 -6 45 -13 85 -16 85
-1 0 -3 11 -5 25 -2 14 -9 48 -15 75 -7 28 -14 59 -15 70 -2 11 -6 31 -9 45
-12 53 -26 116 -32 140 -2 14 -7 32 -9 40 -2 8 -7 31 -10 50 -8 46 -44 184
-59 225 -32 85 -58 184 -51 196 4 5 12 6 18 2 7 -4 17 -8 22 -10 6 -1 55 -18
111 -37 137 -48 239 -61 339 -42 101 18 164 101 167 219 1 38 -8 127 -18 167
-2 8 -8 35 -14 60 -10 42 -44 156 -57 190 -3 8 -7 20 -9 25 -5 22 -57 171 -66
190 -4 11 -10 29 -12 40 -11 52 -102 300 -140 381 -55 116 -108 194 -188 276
-60 62 -175 148 -197 148 -6 0 -11 4 -11 8 0 13 -258 138 -320 155 -30 9 -82
24 -115 33 -33 10 -73 18 -90 19 -16 2 -48 8 -70 14 -22 6 -58 11 -79 11 -39
0 -40 0 -20 19 12 10 38 21 60 24 178 26 239 42 334 88 74 37 183 140 215 204
11 22 25 47 31 55 6 8 25 60 43 115 31 99 32 100 64 102 90 4 139 26 208 93
58 56 82 113 83 196 0 82 -16 142 -56 201 -30 45 -92 93 -119 93 -14 0 -15 7
-7 53 5 28 11 74 14 100 3 26 7 65 9 85 3 20 7 132 9 247 4 163 2 228 -11 290
-8 44 -16 87 -17 95 -6 43 -58 183 -98 265 -72 148 -130 219 -317 388 -17 16
-31 33 -31 39 0 12 -59 86 -107 134 -82 82 -230 161 -358 191 -27 6 -241 14
-246 9z m-2035 -3811 c32 -4 70 -9 85 -12 14 -2 40 -6 56 -8 17 -2 49 -8 73
-13 23 -5 42 -8 42 -5 0 3 7 0 15 -7 8 -7 15 -9 15 -6 0 4 8 2 19 -3 11 -7 25
-34 35 -73 9 -35 32 -121 51 -193 20 -71 38 -139 40 -149 2 -10 15 -58 29
-105 32 -114 32 -115 13 -198 -22 -92 -32 -155 -36 -214 -1 -8 -15 -34 -33
-56 l-31 -41 -37 56 c-55 86 -85 147 -130 262 -23 58 -47 119 -54 135 -7 17
-26 62 -41 100 -15 39 -36 89 -46 112 -11 24 -19 45 -19 47 0 3 -5 17 -12 33
-6 15 -12 30 -13 33 -1 3 -9 22 -18 44 -9 21 -17 40 -17 42 0 2 -14 34 -31 71
-75 162 -75 164 -36 158 12 -2 48 -6 81 -10z m1218 -511 c5 -40 -12 -55 -50
-45 -23 6 -22 6 10 43 18 21 34 37 34 38 1 0 4 -16 6 -36z m1777 -44 c-5 -4
-20 -6 -32 -5 -19 1 -22 8 -25 46 l-3 44 35 -40 c20 -22 31 -42 25 -45z
m-1839 -544 c0 -1 -5 -17 -10 -36 -6 -19 -12 -46 -15 -60 -3 -14 -14 -56 -25
-95 -12 -38 -23 -77 -25 -85 -2 -8 -4 -16 -4 -17 -1 -2 -1 -4 0 -5 0 -2 -7
-20 -16 -40 -8 -21 -13 -38 -10 -38 3 0 1 -9 -5 -20 -9 -17 -45 -131 -70 -225
-5 -16 -16 -57 -25 -90 -10 -33 -19 -68 -21 -78 -2 -10 -5 -26 -8 -35 -3 -9
-8 -30 -11 -47 -2 -16 -7 -41 -10 -55 -3 -14 -7 -55 -9 -92 -5 -62 -3 -68 20
-82 20 -14 23 -23 20 -55 l-4 -38 72 -36 c39 -19 92 -45 119 -56 l47 -21 1
-68 c0 -37 2 -103 4 -147 17 -427 20 -480 31 -575 3 -30 7 -73 9 -95 2 -22 4
-40 5 -40 0 0 3 -31 6 -70 3 -38 6 -86 8 -105 2 -19 7 -62 10 -95 3 -33 9 -80
12 -105 3 -25 8 -70 10 -100 2 -30 6 -80 9 -110 2 -30 6 -66 9 -80 2 -14 7
-59 11 -100 3 -41 8 -93 10 -115 3 -22 7 -58 9 -80 2 -22 7 -69 11 -105 7 -62
7 -64 -11 -50 -11 8 -21 17 -24 20 -3 3 -30 25 -60 50 -30 25 -57 47 -60 50
-3 3 -21 17 -42 32 -20 15 -42 33 -50 40 -7 7 -40 33 -73 58 -33 25 -69 53
-79 63 -11 9 -23 17 -26 17 -4 0 -20 11 -36 25 -16 14 -61 47 -101 73 -78 51
-80 53 -88 127 -3 28 -8 66 -10 85 -4 31 -12 96 -20 180 -2 14 -4 25 -5 25 -1
0 -3 18 -4 40 -2 22 -6 63 -10 90 -9 81 -17 148 -21 185 -2 19 -6 53 -9 75 -2
22 -8 69 -11 105 -4 36 -9 73 -10 82 -2 9 -7 49 -10 89 -4 40 -9 82 -11 93 -2
12 -6 48 -9 81 -2 33 -6 74 -9 90 -2 17 -7 62 -11 100 -10 103 -14 144 -20
200 -7 61 -11 101 -20 230 -11 175 -20 260 -25 260 -1 0 -3 14 -5 30 -2 17
-12 60 -21 97 -9 38 -13 76 -8 85 4 10 8 53 9 96 0 43 6 81 11 85 6 4 14 20
18 37 6 24 9 27 17 14 4 -9 23 -22 41 -29 18 -7 38 -20 45 -27 16 -20 47 -8
61 22 11 25 36 33 46 16 10 -15 58 -3 74 20 25 36 49 52 84 56 18 1 41 12 50
23 9 11 31 23 50 26 18 4 43 16 56 28 20 18 23 29 21 84 -1 34 2 67 7 72 15
14 144 56 144 46z m1209 -2153 c42 -43 122 -127 176 -188 55 -60 104 -115 110
-121 5 -6 37 -42 70 -79 33 -38 65 -73 70 -79 6 -6 39 -45 75 -86 36 -41 74
-84 85 -96 11 -11 40 -44 65 -74 25 -29 50 -59 56 -65 9 -9 5 -19 -15 -42 -41
-49 -55 -66 -72 -93 -9 -14 -25 -35 -35 -47 -11 -11 -26 -31 -34 -43 -22 -32
-197 -261 -220 -288 -11 -13 -20 -27 -20 -32 0 -5 -3 -10 -7 -12 -12 -5 -223
-287 -223 -297 0 -6 10 -17 23 -26 l22 -16 -32 -27 c-17 -15 -44 -37 -60 -50
-16 -13 -42 -43 -58 -67 -17 -25 -33 -45 -37 -45 -3 0 -15 17 -25 38 -11 20
-44 57 -74 81 l-54 44 1 56 c1 31 5 101 8 156 14 232 17 284 21 365 6 115 15
282 20 355 2 33 6 103 9 155 3 52 8 122 11 155 3 33 8 89 10 125 10 154 16
227 20 250 2 14 7 50 10 80 6 60 13 90 21 90 3 0 40 -35 83 -77z"/>
</g>
</svg>
