<?xml version="1.0" ?><svg fill="none" height="120" viewBox="0 0 120 120" width="120" xmlns="http://www.w3.org/2000/svg"><path d="M120 60C120 93.1371 93.1371 120 60 120C26.8629 120 0 93.1371 0 60C0 26.8629 26.8629 0 60 0C93.1371 0 120 26.8629 120 60Z" fill="#ED812B"/><path d="M67.2847 75.8688C70.9635 75.0229 74.4778 73.5528 77.6718 71.5228C80.0781 69.8952 80.7244 66.6051 79.1144 64.1725C77.5679 61.8332 74.4864 61.1273 72.0887 62.5595C64.7313 67.2118 55.3829 67.2118 48.0255 62.5595C45.5816 61.0019 42.3559 61.7428 40.8122 64.2075C40.8122 64.2133 40.8122 64.2191 40.8065 64.222C39.2657 66.6926 39.9986 69.9565 42.4424 71.514L42.4482 71.5199C45.6364 73.547 49.1478 75.02 52.8237 75.86L42.8262 85.9667C40.7863 87.9939 40.7488 91.3044 42.7454 93.3666L42.8319 93.4541C43.8245 94.4866 45.169 95 46.5078 95C47.8495 95 49.1911 94.4866 50.1865 93.4541L60.0571 83.5254L69.8786 93.4599C71.956 95.4871 75.2741 95.4317 77.2822 93.3287C79.2385 91.2782 79.2385 88.026 77.2822 85.9784L67.2847 75.8688ZM60.0571 61.1332C69.9248 61.1215 77.917 53.042 77.9314 43.0695C77.9314 33.1087 69.9103 25 60.0571 25C50.2038 25 42.1828 33.1087 42.1828 43.0753C42.1972 53.0508 50.1923 61.1303 60.0571 61.1361V61.1332ZM60.0571 35.5909C64.1427 35.5967 67.4521 38.9452 67.455 43.0724C67.455 47.2026 64.1427 50.5481 60.0571 50.554C55.9744 50.5481 52.665 47.2055 52.6563 43.0753C52.6621 38.9422 55.9744 35.5967 60.0571 35.5879V35.5909Z" fill="white"/></svg>